<svg width="88" height="85" viewBox="0 0 88 85" fill="none" xmlns="http://www.w3.org/2000/svg">
<path d="M87.5 42.5C87.5 65.6797 68.0409 84.5 44 84.5C19.9591 84.5 0.5 65.6797 0.5 42.5C0.5 19.3202 19.9591 0.5 44 0.5C68.0409 0.5 87.5 19.3202 87.5 42.5Z" fill="#F0950C" stroke="#F0950C"/>
<mask id="path-2-inside-1_4_421" fill="white">
<path fill-rule="evenodd" clip-rule="evenodd" d="M20.0396 39.6187C14.2603 38.3169 10 33.8323 10 28.5C10 22.1487 16.0442 17 23.5 17C28.9015 17 33.5621 19.7023 35.7203 23.6065C38.6024 22.5686 41.7308 22 45 22C47.9556 22 50.7959 22.4647 53.4433 23.3208C55.6675 19.5711 60.2312 17 65.5 17C72.9558 17 79 22.1487 79 28.5C79 33.5437 75.1883 37.8291 69.885 39.3798C70.6101 41.633 71 44.0236 71 46.5C71 60.031 59.3594 71 45 71C30.6406 71 19 60.031 19 46.5C19 44.1109 19.3629 41.8018 20.0396 39.6187Z"/>
</mask>
<path fill-rule="evenodd" clip-rule="evenodd" d="M20.0396 39.6187C14.2603 38.3169 10 33.8323 10 28.5C10 22.1487 16.0442 17 23.5 17C28.9015 17 33.5621 19.7023 35.7203 23.6065C38.6024 22.5686 41.7308 22 45 22C47.9556 22 50.7959 22.4647 53.4433 23.3208C55.6675 19.5711 60.2312 17 65.5 17C72.9558 17 79 22.1487 79 28.5C79 33.5437 75.1883 37.8291 69.885 39.3798C70.6101 41.633 71 44.0236 71 46.5C71 60.031 59.3594 71 45 71C30.6406 71 19 60.031 19 46.5C19 44.1109 19.3629 41.8018 20.0396 39.6187Z" fill="#F7F7F7"/>
<path d="M20.0396 39.6187L20.2306 39.6779L20.2947 39.4712L20.0835 39.4236L20.0396 39.6187ZM35.7203 23.6065L35.5453 23.7033L35.6278 23.8524L35.7881 23.7947L35.7203 23.6065ZM53.4433 23.3208L53.3818 23.5111L53.5338 23.5603L53.6154 23.4228L53.4433 23.3208ZM69.885 39.3798L69.8288 39.1878L69.6316 39.2455L69.6946 39.441L69.885 39.3798ZM9.8 28.5C9.8 33.9478 14.1484 38.4968 19.9956 39.8138L20.0835 39.4236C14.3722 38.1371 10.2 33.7168 10.2 28.5H9.8ZM23.5 16.8C15.965 16.8 9.8 22.0094 9.8 28.5H10.2C10.2 22.2881 16.1233 17.2 23.5 17.2V16.8ZM35.8954 23.5098C33.6977 19.5342 28.9651 16.8 23.5 16.8V17.2C28.8379 17.2 33.4265 19.8705 35.5453 23.7033L35.8954 23.5098ZM45 21.8C41.7075 21.8 38.5562 22.3726 35.6526 23.4184L35.7881 23.7947C38.6486 22.7645 41.754 22.2 45 22.2V21.8ZM53.5049 23.1305C50.8377 22.268 47.9766 21.8 45 21.8V22.2C47.9345 22.2 50.7541 22.6614 53.3818 23.5111L53.5049 23.1305ZM65.5 16.8C60.1689 16.8 55.5355 19.4015 53.2713 23.2188L53.6154 23.4228C55.7994 19.7407 60.2936 17.2 65.5 17.2V16.8ZM79.2 28.5C79.2 22.0094 73.035 16.8 65.5 16.8V17.2C72.8767 17.2 78.8 22.2881 78.8 28.5H79.2ZM69.9411 39.5717C75.3089 38.0022 79.2 33.6526 79.2 28.5H78.8C78.8 33.4349 75.0678 37.6559 69.8288 39.1878L69.9411 39.5717ZM71.2 46.5C71.2 44.0025 70.8067 41.5912 70.0754 39.3185L69.6946 39.441C70.4134 41.6748 70.8 44.0447 70.8 46.5H71.2ZM45 71.2C59.4585 71.2 71.2 60.1525 71.2 46.5H70.8C70.8 59.9095 59.2603 70.8 45 70.8V71.2ZM18.8 46.5C18.8 60.1525 30.5415 71.2 45 71.2V70.8C30.7397 70.8 19.2 59.9095 19.2 46.5H18.8ZM19.8485 39.5595C19.166 41.7614 18.8 44.0906 18.8 46.5H19.2C19.2 44.1313 19.5598 41.8421 20.2306 39.6779L19.8485 39.5595Z" fill="#808080" mask="url(#path-2-inside-1_4_421)"/>
<path d="M55.9 57C55.9 58.6008 54.6544 60.0745 52.5855 61.154C50.5214 62.2309 47.6629 62.9 44.5 62.9C41.3371 62.9 38.4786 62.2309 36.4145 61.154C34.3456 60.0745 33.1 58.6008 33.1 57C33.1 55.3992 34.3456 53.9255 36.4145 52.846C38.4786 51.7691 41.3371 51.1 44.5 51.1C47.6629 51.1 50.5214 51.7691 52.5855 52.846C54.6544 53.9255 55.9 55.3992 55.9 57Z" fill="#F7F7F7" stroke="#808080" stroke-width="0.2"/>
</svg>
